<svg xmlns="http://www.w3.org/2000/svg" width="512" height="512" viewBox="0 0 512 512" role="img" aria-label="Omega Prime icon">
  <defs>
    <linearGradient id="edge" x1="0" y1="0" x2="1" y2="1">
      <stop offset="0" stop-color="#2dd4bf"/>
      <stop offset="1" stop-color="#8b5cf6"/>
    </linearGradient>
    <radialGradient id="ground" cx="0.5" cy="0.42" r="0.75">
      <stop offset="0" stop-color="#161d27"/>
      <stop offset="1" stop-color="#0d1117"/>
    </radialGradient>
  </defs>
  <rect x="0" y="0" width="512" height="512" rx="112" fill="url(#ground)"/>
  <rect x="0" y="0" width="512" height="512" rx="112" fill="none" stroke="#ffffff" stroke-opacity="0.08" stroke-width="2"/>
  <g fill="none" stroke="url(#edge)" stroke-width="22" stroke-linecap="round" stroke-linejoin="round">
    <path d="M256 96 L395 176 L395 336 L256 416 L117 336 L117 176 Z"/>
  </g>
  <g fill="#0d1117" stroke="url(#edge)" stroke-width="10">
    <circle cx="256" cy="96" r="26"/>
    <circle cx="395" cy="176" r="26"/>
    <circle cx="395" cy="336" r="26"/>
    <circle cx="256" cy="416" r="26"/>
    <circle cx="117" cy="336" r="26"/>
    <circle cx="117" cy="176" r="26"/>
  </g>
  <g fill="none" stroke="#2dd4bf" stroke-opacity="0.55" stroke-width="8" stroke-linecap="round">
    <path d="M256 176 L326 216 L326 296 L256 336 L186 296 L186 216 Z"/>
  </g>
  <circle cx="256" cy="256" r="30" fill="url(#edge)"/>
  <circle cx="256" cy="256" r="30" fill="none" stroke="#ffffff" stroke-opacity="0.25" stroke-width="3"/>
</svg>
